<svg xmlns="http://www.w3.org/2000/svg" viewBox="0 0 992 636.66"><defs><style>.cls-1{fill:#f7f7f7;}.cls-2{fill:#9ea6ad;}.cls-3{fill:#eac5b0;}.cls-4{fill:#145566;}.cls-5{fill:#1a3151;}.cls-6{fill:#d1e7f5;}.cls-7{fill:#ebb044;}.cls-8{fill:#d1d6d6;}.cls-9{fill:#fff;}.cls-10{fill:#b5d6ca;}.cls-11{fill:#3ababa;}</style></defs><g id="shadow"><path class="cls-1" d="M329.47,644.91c-44.33.54-84.87,5.22-128.69,6.48-22.15.63-94.87-1.11-108.92,11.31-22.16,19.59,36.45,18.39,30.45,33.2-1.19,2.94-5.66,5-8.39,7.52-4.89,4.59-3.63,10.85,1.53,15.34C138.07,738.42,220.76,732.7,255.51,733c201,1.92,402.56,4.21,602.45-2.28,43.11-1.4,86-3.17,128.9-4.82,19.64-.76,44.23-2.72,44.31-7.13.19-11.16-37.18.55-24.82-21.71,4-7.16,24.5-8.58,14.09-20.83-11.44-13.48-37.87-23.89-62.3-27.29-24.95-3.48-50.61-2.94-76-4-46.57-2-93.36-2.42-140.08-2.6-106-.41-212,.28-318,1.34C392.58,644,361,644.54,329.47,644.91Z" transform="translate(-63 -98.4)"/></g><g id="object"><rect class="cls-2" x="168.15" y="213.16" width="4.53" height="138.87" transform="matrix(0.05, -1, 1, 0.05, -182.63, 341.61)"/><rect class="cls-2" x="187.15" y="134.8" width="4.53" height="167.75" transform="translate(-156.35 59.13) rotate(-36.9)"/><polygon class="cls-3" points="583.97 279.46 584.58 268.97 589.07 268.75 590.25 275.92 592.38 274.83 590.77 283.81 586.09 284.67 583.97 279.46"/><polygon class="cls-4" points="642.52 320.97 609.24 318.05 592.85 278.76 583.8 281.72 592.38 336.06 644.36 345.51 642.52 320.97"/><polygon class="cls-3" points="166.48 259.06 164.96 248.63 160.45 248.79 159.9 256.06 157.67 255.16 160.06 264 164.82 264.45 166.48 259.06"/><polygon class="cls-4" points="101.31 310.29 149.21 300.93 157.54 259.13 166.85 261.3 164.19 319.36 116.39 335.32 101.31 310.29"/><path class="cls-5" d="M363,672.72a3.92,3.92,0,0,0-3.57-1.53,4,4,0,0,0-3,2.26,7.73,7.73,0,0,0-.51,2.57c-.37,4.54-.34,15.3,5.7,16.85,2.54.65,4.63-1.15,5.31-3.43C368,686,366.46,676.49,363,672.72Z" transform="translate(-63 -98.4)"/><path class="cls-3" d="M365.18,604.34,364.86,632c.37,12.29-1.55,24.64-1.18,36.92.09,2.82.82,5.8.11,8.6s-2.92,3.22-5.2,1.84c-3.06-1.86-2.57-6.2-3.08-9.37-1.4-8.69-3-17.35-4.5-26-.72-4.25.76-10.22.43-14.53L347,606.23Z" transform="translate(-63 -98.4)"/><polygon class="cls-6" points="270.59 461.26 282.62 514.71 285.18 565.2 304.26 564.77 309.45 423.56 272.46 424.24 270.59 461.26"/><path class="cls-5" d="M390.32,671.71a3.89,3.89,0,0,0-3.62-1.32,4.11,4.11,0,0,0-2.9,2.44,7.7,7.7,0,0,0-.4,2.61c-.18,4.56.31,15.33,6.4,16.52,2.55.5,4.57-1.42,5.15-3.74C395.82,684.72,393.9,675.29,390.32,671.71Z" transform="translate(-63 -98.4)"/><path class="cls-3" d="M380.27,608.22l1.62,27.6c.13,7.67,1.15,15.28,1.95,22.9.73,7.08-.42,14.45,3.28,20.89,1.16,2,3.51,3.36,5.15.91,1.26-1.89.51-5,.75-7.19,1-8.75,2.22-17.47,3.27-26.22.52-4.28-1.24-10.18-1.12-14.5l3.37-23.35Z" transform="translate(-63 -98.4)"/><polygon class="cls-6" points="341.41 457.99 342.97 509.88 334.82 562.35 315.41 562.93 316.27 506.14 306 459.05 302.55 428.22 333.35 424.59 341.41 457.99"/><polygon class="cls-7" points="317.05 318.4 283.87 317.6 264.63 353.38 271.47 386.89 272.69 427 320.02 427.64 335.59 425.11 331.46 382.26 333.83 325.02 317.05 318.4"/><polygon class="cls-3" points="272.75 411.2 271.23 416.74 279 423.09 285.04 420.36 286.63 413.86 281.89 412.02 282.09 410.54 280.8 408.88 272.75 411.2"/><polygon class="cls-7" points="283.91 318.88 243.38 363.35 237.29 381.34 270.42 416.08 280.47 409.32 259.22 380.26 279.49 365.24 283.91 318.88"/><polygon class="cls-7" points="315.8 340.07 333.08 374.63 351.71 378.33 387.64 347.97 379.63 338.88 347.79 356.72 330.91 325.02 315.8 340.07"/><path class="cls-3" d="M378,389c-5-14.55-24.2-9.1-28.16,3.85-2.58,8.45,3.95,19.41,12.7,21.84a7.86,7.86,0,0,1,.07.9,27.59,27.59,0,0,0,.37,4.05c.08.51,7.74-1,8.59-1.13a1.13,1.13,0,0,0,.79-.4c.31-.48-.19-1.89-.25-2.43s-.13-1.26-.2-1.89c4.32-2.11,7.05-6.6,7.81-11.16S379.48,393.37,378,389Z" transform="translate(-63 -98.4)"/><path class="cls-5" d="M365.45,375.86a7.53,7.53,0,0,0-1.73,3.9,6,6,0,0,0-.15,2.53c.71,3.3,4,3.13,6.52,4.19a16.9,16.9,0,0,1,7.56,6.51c2.74,4.36,1.51,10,.4,14.77-.4,1.69-1.18,4.21.13,5.72s4.42,1.3,6,.51,2.66-2.06,4.26-2.33,4,.47,4.78-1.09a10.6,10.6,0,0,1,.52-1.36c.94-1.34,3.27.23,4.59-.72.82-.58.81-1.82.54-2.8a6.61,6.61,0,0,1-.55-3,9.37,9.37,0,0,1,1.17-2.32,4.55,4.55,0,0,0-.64-4.84c-2.09-2.42-6.13-2-8.37-4.24a9.72,9.72,0,0,1-2.05-4.51,8.64,8.64,0,0,0-2.21-4.42c-1.54-1.36-3.76-1.13-5.28-2.73a31.7,31.7,0,0,0-2.49-3c-1.33-1.08-3.91-1.91-5.55-2.46A7.2,7.2,0,0,0,365.45,375.86Z" transform="translate(-63 -98.4)"/><path class="cls-5" d="M353.3,399.06c-.09,4.79,2.29,10,.09,14.18s-7.77,5-12.5,5.24c-.78,0-10.76.9-10.8.71-.75-3.34-1.52-6.74-3.26-9.67s-4.66-5.35-8-5.56c1-.16,1.44-1.34,1.33-2.34a15.42,15.42,0,0,0-.92-2.84,6.7,6.7,0,0,1,1.75-6.73c3.53-3.29,9.93-1.93,12.95-5.7,1.88-2.35,1.66-5.74,2.64-8.6,1.9-5.54,8-6.69,12.48-9.19,4.78-2.64,9.28-4.08,14.79-3.16,6.84,1.14,11.92,8.1,9.28,14.64-3.38,8.4-16.9,7.68-19.43,16.21A10.67,10.67,0,0,0,353.3,399.06Z" transform="translate(-63 -98.4)"/><polygon class="cls-8" points="293.69 318.21 303.98 332.75 308.82 332.36 316.88 317.6 293.69 318.21"/><rect class="cls-2" x="848.51" y="78.06" width="4.53" height="167.99" transform="translate(514.76 885.57) rotate(-82.41)"/><rect class="cls-2" x="296.83" y="264.36" width="4.53" height="239.57" transform="translate(-248.7 241.08) rotate(-46.83)"/><rect class="cls-2" x="874.56" y="104.89" width="4.53" height="260.54" transform="translate(127.09 730.49) rotate(-55.86)"/><path class="cls-4" d="M136.33,497.3c1.67-8.3,3-16,3.09-20.12.36-12.5,2-53.78,2-53.78l7.76-15.79,1.43,0-.31,0a10.6,10.6,0,0,0-.12-3.44c-13.53.81-27.39,7.9-31.27,21.07a16.55,16.55,0,0,0-.66,3.32c-.54,6.77,1.52,11.77-.43,18.56-1.69,5.91-3.23,11.9-4.36,17.94-1.63,8.75-3.14,17.45-4.33,26.13a267.41,267.41,0,0,0-2.51,28.74c0,1.05-.24,4-.36,7.52-.25,7.37-.09,17.23,3,17.6a3.17,3.17,0,0,0,1.66-.43c4-2,7.14-4.48,10.66-6.69l.19-38.46Z" transform="translate(-63 -98.4)"/><path class="cls-4" d="M207.68,536.83c-.79-8.19-1.62-16.37-2.62-24.53-2-16.28-4.74-32.52-9.37-48.28-1.77-6-3.81-12-5.84-17.89q-3.73-10.85-7.45-21.68c-3.08-9-8.29-15.31-17.4-18.45a34.76,34.76,0,0,0-5.11-1.31c0,.19-.08.37-.11.57a4.66,4.66,0,0,1-.89,2.45l6,.05s16.88,59,17.5,69.15c.23,3.87,1,12.3,1.89,21.19l9.16,1.35.4,34,1.53.42c2.91.77,5.27,2.89,7.69,4.56C206.6,540.87,208.17,541.84,207.68,536.83Z" transform="translate(-63 -98.4)"/><path class="cls-5" d="M169.11,528.33l-2,.16-6.57,63.09,7.06,91.76h.06V682h11.78l14.93-102.18-.53-46.33c-7.14-2.06-14.87-5.22-22.33-5.16Z" transform="translate(-63 -98.4)"/><path class="cls-4" d="M184.26,498.1c1.38,14.06,3,29.26,3,29.26s-7.41.17-18.13,1l2.38-.05c7.46-.06,15.19,3.1,22.33,5.16l-.4-34Z" transform="translate(-63 -98.4)"/><polygon class="cls-5" points="104.64 584.93 104.64 589.84 117.23 596.14 123.52 589.84 117.23 583.55 116.42 583.55 116.22 584.93 104.64 584.93"/><polygon class="cls-5" points="104.64 584.93 116.22 584.93 116.42 583.55 104.64 583.55 104.64 584.93"/><path class="cls-5" d="M150.62,530.11l-.87.1a103.15,103.15,0,0,1-15.52,2.4,49.46,49.46,0,0,0-8.78,3.12,38.48,38.48,0,0,0-3.9,2.18l0,8L135.8,682h11.72v1.39h.06l12.89-91.25.05-.51-.29-3.8Z" transform="translate(-63 -98.4)"/><path class="cls-4" d="M134.23,532.61c-5.11.26-5.75-.68-5.75-.68s4.61-18.52,7.85-34.63l-14.59,2.15-.19,38.46a38.48,38.48,0,0,1,3.9-2.18A49.46,49.46,0,0,1,134.23,532.61Z" transform="translate(-63 -98.4)"/><path class="cls-5" d="M150.62,530.11l9.61,57.67.29,3.8,6.57-63.09C162.09,528.88,156.48,529.41,150.62,530.11Z" transform="translate(-63 -98.4)"/><polygon class="cls-5" points="72.8 583.55 71.93 583.55 65.64 589.84 71.93 596.14 84.52 589.84 84.52 584.93 72.94 584.93 72.8 583.55"/><polygon class="cls-5" points="72.8 583.55 72.94 584.93 84.52 584.93 84.52 583.55 72.8 583.55"/><path class="cls-9" d="M184.26,498.1c-.87-8.89-1.66-17.32-1.89-21.19-.62-10.16-17.5-69.15-17.5-69.15l-6-.05-.21.21a2,2,0,0,1-.64.37,3.58,3.58,0,0,1-1.53,0l-5.94-.7-1.43,0-7.76,15.79s-1.6,41.28-2,53.78c-.12,4.15-1.42,11.82-3.09,20.12-3.24,16.11-7.85,34.63-7.85,34.63s.64.94,5.75.68a103.15,103.15,0,0,0,15.52-2.4l.87-.1c5.86-.7,11.47-1.23,16.47-1.62l2-.16c10.72-.8,18.13-1,18.13-1S185.64,512.16,184.26,498.1Z" transform="translate(-63 -98.4)"/><path class="cls-3" d="M159.89,404.69c.77-3.33,4.45-4.83,6.43-7.78a25.81,25.81,0,0,0,3.93-11.21l0-.21a5,5,0,0,1-.92.4c-.39-1.59.36-3.21.72-4.81a5.11,5.11,0,0,0,.08-1.24,35.82,35.82,0,0,1-7.8-2.46c-4.35-1.9-12.82-3.92-17.34-1.68-3.57,1.77-2.47,7.43-2.29,11a10.11,10.11,0,0,1-.1,2.75,11.94,11.94,0,0,1-1.15,2.32,9.82,9.82,0,0,0,2.12,3.91c2.86,3.23,5.77,4.82,6.54,8.47A41.45,41.45,0,0,1,159.89,404.69Z" transform="translate(-63 -98.4)"/><path class="cls-3" d="M150.26,407.59l.31,0,8.32.08a4.66,4.66,0,0,0,.89-2.45c0-.2.07-.38.11-.57a41.45,41.45,0,0,0-9.75-.54A10.6,10.6,0,0,1,150.26,407.59Z" transform="translate(-63 -98.4)"/><path class="cls-3" d="M156.51,408.33a3.58,3.58,0,0,0,1.53,0,2,2,0,0,0,.64-.37l.21-.21-8.32-.08Z" transform="translate(-63 -98.4)"/><path class="cls-5" d="M170.33,379.87a17.39,17.39,0,0,1-.05,5.62,9.89,9.89,0,0,0,4.09-5.44A15.44,15.44,0,0,1,170.33,379.87Z" transform="translate(-63 -98.4)"/><path class="cls-5" d="M170.33,379.87l-.17,0a5.11,5.11,0,0,1-.08,1.24c-.36,1.6-1.11,3.22-.72,4.81a5,5,0,0,0,.92-.4A17.39,17.39,0,0,0,170.33,379.87Z" transform="translate(-63 -98.4)"/><path class="cls-5" d="M141.26,380.84a10.86,10.86,0,0,1,.72-4.16c1.05-2.25,3.5-3.5,5.87-4.23,6.06-1.89,13-1.42,18.33,2A9.72,9.72,0,0,1,169.7,378a6.36,6.36,0,0,1,.31.71c-.36-1.74-1.17-3.49-.9-4.74.4-1.82,2.91-2.21,4.31-1.21a4.43,4.43,0,0,1,1.65,3.26,9.39,9.39,0,0,1-.6,3.74c0,.08-.06.17-.1.26a8,8,0,0,0,2.43-.61c3.81-1.67,6.91-8.32,6.78-12.42a5.68,5.68,0,0,0-2.51-4.79c-1.48-1-3.18-1.83-4.08-3.42-.7-1.23-.8-2.75-1.49-4-1.25-2.23-4-2.89-6.32-3.65-5.91-1.9-9.09-4.09-15.35-1.66-4.44,1.73-10.19,2-14.32,4.48a14.44,14.44,0,0,0-4.39,4.62c-4.17,6.52-5.17,15.69-2.46,22.49a27.65,27.65,0,0,0,2.21,4.26c1.65,2.68,3.42,6,6.34,7.29a3.35,3.35,0,0,1,.27-.88C140.5,388.33,141.11,384.46,141.26,380.84Z" transform="translate(-63 -98.4)"/><path class="cls-5" d="M142.73,386.7c-.18-3.57-1.28-9.23,2.29-11,4.52-2.24,13-.22,17.34,1.68a35.82,35.82,0,0,0,7.8,2.46,10.37,10.37,0,0,0-.15-1.1,6.36,6.36,0,0,0-.31-.71,9.72,9.72,0,0,0-3.52-3.57c-5.33-3.43-12.27-3.9-18.33-2-2.37.73-4.82,2-5.87,4.23a10.86,10.86,0,0,0-.72,4.16c-.15,3.62-.76,7.49.22,10.93a11.94,11.94,0,0,0,1.15-2.32A10.11,10.11,0,0,0,142.73,386.7Z" transform="translate(-63 -98.4)"/><path class="cls-5" d="M175.07,376.05a4.43,4.43,0,0,0-1.65-3.26c-1.4-1-3.91-.61-4.31,1.21-.27,1.25.54,3,.9,4.74a7.62,7.62,0,0,1,.32,1.13,15.44,15.44,0,0,0,4,.18c0-.09.07-.18.1-.26A9.39,9.39,0,0,0,175.07,376.05Z" transform="translate(-63 -98.4)"/><path class="cls-5" d="M170,378.74a10.37,10.37,0,0,1,.15,1.1l.17,0A7.62,7.62,0,0,0,170,378.74Z" transform="translate(-63 -98.4)"/><polygon class="cls-3" points="857.36 323.07 873.4 319.06 888.57 322.09 874.78 332.71 857.36 323.07"/><path class="cls-5" d="M927.51,393.48c-2.63,4.2-1.34,9.58-.18,14.18.47,1.89,1.28,4.55-.54,6-2,1.57-5.39.07-6.44-1.92a9.65,9.65,0,0,1-.84-4.57c-.08-6.95-.19-16.68,2.47-23.13,2.12-5.16,11.61-12.54,17.25-7.05a7.23,7.23,0,0,1,1.76,3.73,5.9,5.9,0,0,1,.18,2.43c-.65,3.17-3.87,3-6.34,4.07A16.27,16.27,0,0,0,927.51,393.48Z" transform="translate(-63 -98.4)"/><path class="cls-3" d="M933.52,413.44a14.67,14.67,0,0,1-7.88-10.69c-.81-4.41.08-8.9,1.49-13.1,4.7-14,23.62-8.89,27.68,3.51C958.36,404,946,419.2,933.52,413.44Z" transform="translate(-63 -98.4)"/><path class="cls-5" d="M951.91,399.55c-.39,1.76-.09,3.84-.4,5.66-.58,3.37-2.62,7.32-2.37,10.64a20.89,20.89,0,0,0,11.18-1.69c3.2-1.51,3.83-5.06,5.45-8.27a45.44,45.44,0,0,0,4-9.12c4.48-17.62-9.81-32.54-27.5-29.53-6.69,1.14-11.58,7.86-8.9,14.13,2.89,6.74,12.87,7.36,17.09,13A9.78,9.78,0,0,1,951.91,399.55Z" transform="translate(-63 -98.4)"/><path class="cls-3" d="M933.54,412.25c-.14,1.32-.28,2.64-.41,4-.07.6-.58,2.22-.28,2.76a1,1,0,0,0,.77.41c.84.16,8.38,1.54,8.46,1a37.62,37.62,0,0,0,.42-4.6c0-1.24.53-3.41.21-4.47a12.1,12.1,0,0,1-4.55.76c-1.53,0-3.06,0-4.59-.11Z" transform="translate(-63 -98.4)"/><polygon class="cls-3" points="814.8 425.15 809.57 424.14 804.32 431.59 807.31 436.88 813.45 437.9 815.71 430.36 814.8 425.15"/><polygon class="cls-2" points="864.14 331.49 844.77 332.57 832.53 384.76 809.52 422.84 815.91 430.21 846.34 399.62 864.14 331.49"/><path class="cls-5" d="M919.18,677.82a4.54,4.54,0,0,1,3.64-2.52,4.75,4.75,0,0,1,3.93,1.79,8.32,8.32,0,0,1,1.21,2.7c1.53,4.89,4.14,16.71-2.27,19.82-2.69,1.3-5.49-.19-6.81-2.53C916.9,693.55,916.26,682.76,919.18,677.82Z" transform="translate(-63 -98.4)"/><path class="cls-3" d="M930.79,602.51l-.84,31c.2,13.79-2.21,27.62-2,41.42,0,3.17.84,6.52,0,9.65s-3.41,3.57-6,2c-3.48-2.13-2.84-7-3.37-10.56-1.46-9.78-3.19-19.53-4.72-29.3-.75-4.8,1-11.47.75-16.32l-4.73-26.08Z" transform="translate(-63 -98.4)"/><path class="cls-5" d="M941.14,679a4.43,4.43,0,0,1,7.59.49,8.25,8.25,0,0,1,.72,2.86c.67,5.06,1.18,17.14-5.67,19.18-2.88.86-5.38-1-6.28-3.58C936.16,694.19,937.4,683.44,941.14,679Z" transform="translate(-63 -98.4)"/><path class="cls-3" d="M935.17,602.44l1.78,31c.21,13.79,3,27.55,3.25,41.34,0,3.17-.64,6.55.32,9.65s3.52,3.47,6.07,1.8c3.41-2.24,2.63-7.08,3-10.66,1.16-9.82,2.6-19.62,3.83-29.43.6-4.82-1.4-11.44-1.25-16.29l3.93-26.21Z" transform="translate(-63 -98.4)"/><path class="cls-2" d="M950.93,417.9l-13.15,7L923,419.5,907.77,431s1.57,47.79,1,65.48-1.74,32.07-3.28,58c-1.69,28.48,5.58,62.73,5.58,62.73l59.12-.89s12-64.82,5.85-81.63-2.51-33.53-2.72-47.28-6-59.84-6-59.84Z" transform="translate(-63 -98.4)"/><polygon class="cls-3" points="943.71 278.49 949.92 280.57 957.56 271.89 954.8 264.71 947.5 262.5 943.48 271.74 943.71 278.49"/><polygon class="cls-2" points="891.56 347.47 933.37 334.01 954.38 278.17 941.93 275.07 917.23 317.5 891.72 322.9 891.56 347.47"/><rect class="cls-2" x="364.71" y="394.24" width="244.33" height="4.53" transform="translate(-202.16 249.58) rotate(-34.73)"/><rect class="cls-2" x="480.77" y="139.6" width="4.53" height="245.33" transform="translate(-57.44 436.12) rotate(-58.19)"/><rect class="cls-2" x="391.18" y="113.82" width="4.53" height="389.41" transform="translate(-13.87 572.66) rotate(-84.58)"/><rect class="cls-2" x="546.67" y="236.67" width="257.15" height="4.53" transform="translate(-43.65 428.37) rotate(-43.18)"/><rect class="cls-2" x="703.26" y="259.68" width="4.53" height="296.05" transform="translate(-84.14 678.01) rotate(-56.92)"/><rect class="cls-2" x="587.17" y="312.62" width="406.53" height="4.53" transform="translate(-72.85 -72.46) rotate(-1.87)"/><circle class="cls-10" cx="507.82" cy="210.13" r="122.58"/><circle class="cls-11" cx="311.4" cy="85.46" r="57.43"/><path class="cls-5" d="M172.84,285.75a65.25,65.25,0,0,1,65.25-65.26c36,0,68.63,29.22,68.63,65.26S274.13,351,238.09,351A65.25,65.25,0,0,1,172.84,285.75Z" transform="translate(-63 -98.4)"/><circle class="cls-11" cx="395.15" cy="466.1" r="51.5" transform="translate(-212.26 645.19) rotate(-76.72)"/><circle class="cls-4" cx="704.52" cy="56.94" r="56.94"/><circle class="cls-5" cx="829.57" cy="481.91" r="62.05" transform="translate(-160.79 629.34) rotate(-45)"/><circle class="cls-11" cx="984.64" cy="308.28" r="70.36" transform="translate(7.41 688.14) rotate(-45)"/><circle class="cls-10" cx="934.04" cy="173.14" r="34.75" transform="translate(353.63 871.42) rotate(-67.5)"/><circle class="cls-7" cx="79.43" cy="53.19" r="34.75"/><circle class="cls-10" cx="38.05" cy="181.04" r="38.05"/><circle class="cls-6" cx="207.35" cy="457.04" r="42.49" transform="translate(-348.11 455.44) rotate(-76.72)"/><polygon class="cls-3" points="92.49 369.75 99.19 369.31 103.02 364.8 104.39 365.13 104.06 366.83 108.31 364 112.44 364.43 115.16 369.23 114.33 374.87 109.28 377.07 102.77 376.33 93.62 377.33 92.49 369.75"/><polygon class="cls-4" points="96 366.51 59.38 367.48 66.82 311.23 41.81 335.87 38.05 387.78 51.52 395.11 101.52 379.17 96 366.51"/><polygon class="cls-5" points="638.44 430.73 638.44 445.85 618.29 511.35 623.33 579.36 610.73 581.88 590.58 498.75 591.35 474.29 600.65 424.41 638.44 430.73"/><polygon class="cls-5" points="622.46 448.63 642.71 587.18 651.91 587.18 657.72 511.61 670.32 436.04 622.46 448.63"/><polygon class="cls-11" points="612.38 580.59 602.77 590.77 605.55 595.93 625.39 586.4 621.73 578.86 612.38 580.59"/><polygon class="cls-11" points="642.88 585.24 631.02 592.69 632.42 598.38 654.01 594.11 652.36 585.9 642.88 585.24"/><path class="cls-3" d="M701.56,378.35c5.63,5.95,15.78,6.15,20.59,12.79,3.13,4.33,3.05,10.53.71,15.46a13.07,13.07,0,0,1-4.86,5.73,12.57,12.57,0,0,1-4.61,1.54,17.76,17.76,0,0,1-6.42-.24,32,32,0,0,0-.55,5.78c-3.75-1.48-8.72-.25-12.48-1.72.85-2.16,2.91-7,3.76-9.18a16.55,16.55,0,0,1-2.14-2.65,19.49,19.49,0,0,1-.36-19.95A38.26,38.26,0,0,1,701.56,378.35Z" transform="translate(-63 -98.4)"/><polygon class="cls-5" points="638.42 283.16 659.09 297.97 649.7 315.51 658.78 316.14 677.34 290.36 651.55 265.77 634.06 262.05 628.43 269.19 632.35 285.35 638.42 283.16"/><polygon class="cls-3" points="384.37 350.65 387.08 345.58 380.91 337.68 374.42 338.99 371.42 344.99 375.63 347.83 375.11 349.23 376 351.13 384.37 350.65"/><polygon class="cls-3" points="559.9 300.72 555.97 290.63 560.21 288.76 564.43 295.07 566.02 293.26 568.34 302.3 564.19 304.84 559.9 300.72"/><polygon class="cls-4" points="649.57 333.45 605.09 337.62 568.58 298.98 560.61 304.43 589.97 355.52 649.57 365.44 649.57 333.45"/><path class="cls-4" d="M678.37,416.81l30-3s24.15,28.13,35.9,69.25-14.36,98.77-14.36,98.77-81.08-16.55-94.38-19.16l26.24-82.22Z" transform="translate(-63 -98.4)"/></g></svg>